<svg width="100" height="25" viewBox="0 0 100 25" fill="none" xmlns="http://www.w3.org/2000/svg">
<path d="M7.83336 5.40814L8.83117 5.41474C12.2927 5.4547 13.6389 5.67509 14.6096 6.31627C15.2287 6.72584 15.647 7.40547 15.8788 8.40498L15.9329 8.66155C16.0779 9.35879 16.1323 10.6265 16.1323 12.6338C16.1323 14.8416 15.8814 16.3504 15.4745 17.385L13.2631 14.2014C13.3148 13.6511 13.3408 13.0158 13.3408 12.2957C13.3408 9.92926 13.1232 8.91509 12.5613 8.57704C12.0228 8.27332 11.6008 8.20245 9.87547 8.12268L8.50419 8.07071L6.99808 8.07303C3.21542 8.10261 2.86347 8.41543 2.83075 11.7162L2.82818 12.1229L2.82804 13.1926C2.84048 16.6379 3.08119 17.0737 7.00749 17.1269L7.98056 17.1335L9.04835 17.1331C9.19527 17.1326 9.33503 17.1318 9.46799 17.1306L11.2808 19.7412L10.7797 19.7619C10.5167 19.7709 10.2353 19.7777 9.93312 19.7829L8.60519 19.7954L7.64604 19.7959C4.52122 19.7876 3.07273 19.659 2.30174 19.3526C1.12353 18.8666 0.525353 18.0849 0.217202 16.627C0.0717425 15.8547 0.0127477 15.0655 0.00167036 13.3907L0 12.4311C0.00465415 10.2325 0.061946 9.38544 0.23533 8.57704C0.561605 7.03464 1.28666 6.1895 2.62802 5.78806C3.47368 5.5368 4.66822 5.42698 6.8499 5.41008L7.83336 5.40814ZM12.3611 14.3028L16.1319 19.6971H12.2145L9.8519 16.339L12.3611 14.3028Z" fill="#363D70"/>
<path d="M32.004 19.898L31.984 10.4286L27.3747 18.2653H26.2124L21.6032 10.551V19.898H19.1182V5.61224H21.2625L26.8337 15.0816L32.3046 5.61224H34.4489L34.4689 19.898H32.004Z" fill="#363D70"/>
<path d="M44.9098 20.102C43.4803 20.102 42.1911 19.7891 41.0421 19.1632C39.8931 18.5238 38.9913 17.6462 38.3367 16.5306C37.6821 15.4013 37.3547 14.1428 37.3547 12.7551C37.3547 11.3673 37.6821 10.1156 38.3367 8.99998C38.9913 7.87072 39.8931 6.99317 41.0421 6.36733C42.1911 5.72787 43.4803 5.40814 44.9098 5.40814C46.3394 5.40814 47.6286 5.72787 48.7776 6.36733C49.9265 6.99317 50.8284 7.86393 51.483 8.97957C52.1376 10.0952 52.4649 11.3538 52.4649 12.7551C52.4649 14.1564 52.1376 15.415 51.483 16.5306C50.8284 17.6462 49.9265 18.5238 48.7776 19.1632C47.6286 19.7891 46.3394 20.102 44.9098 20.102ZM44.9098 17.7755C45.845 17.7755 46.6867 17.5646 47.4349 17.1428C48.1831 16.7074 48.7708 16.1089 49.1984 15.3469C49.6259 14.5714 49.8397 13.7074 49.8397 12.7551C49.8397 11.8027 49.6259 10.9456 49.1984 10.1837C48.7708 9.40814 48.1831 8.8095 47.4349 8.38773C46.6867 7.95236 45.845 7.73467 44.9098 7.73467C43.9746 7.73467 43.133 7.95236 42.3848 8.38773C41.6366 8.8095 41.0488 9.40814 40.6212 10.1837C40.1937 10.9456 39.98 11.8027 39.98 12.7551C39.98 13.7074 40.1937 14.5714 40.6212 15.3469C41.0488 16.1089 41.6366 16.7074 42.3848 17.1428C43.133 17.5646 43.9746 17.7755 44.9098 17.7755Z" fill="#363D70"/>
<path d="M65.2305 12.4694C66.0053 12.7279 66.62 13.1633 67.0742 13.7755C67.5284 14.3742 67.7555 15.1224 67.7555 16.0204C67.7555 17.2585 67.2879 18.2177 66.3527 18.898C65.4175 19.5646 64.0548 19.898 62.2645 19.898H55.2906V5.61224H61.8637C63.5204 5.61224 64.7963 5.94558 65.6914 6.61224C66.5865 7.26531 67.0341 8.17007 67.0341 9.32653C67.0341 10.034 66.8738 10.6599 66.5531 11.2041C66.2325 11.7483 65.7916 12.1701 65.2305 12.4694ZM57.8958 7.69388V11.6327H61.5832C62.4917 11.6327 63.1864 11.4694 63.6673 11.1429C64.1616 10.8028 64.4088 10.313 64.4088 9.67347C64.4088 9.02041 64.1616 8.53061 63.6673 8.20408C63.1864 7.86395 62.4917 7.69388 61.5832 7.69388H57.8958ZM62.1042 17.8163C64.1216 17.8163 65.1303 17.1293 65.1303 15.7551C65.1303 14.3809 64.1216 13.6939 62.1042 13.6939H57.8958V17.8163H62.1042Z" fill="#363D70"/>
<path d="M70.02 5.61224H72.6252V19.898H70.02V5.61224Z" fill="#363D70"/>
<path d="M76.4329 5.51019H79.0381V17.551H86.3727V19.7959H76.4329V5.51019Z" fill="#363D70"/>
<path d="M98.978 17.6735V19.898H88.4569V5.61224H98.6974V7.83673H91.0621V11.551H97.8357V13.7347H91.0621V17.6735H98.978Z" fill="#363D70"/>
</svg>
