<svg width="33" height="33" viewBox="0 0 33 33" fill="none" xmlns="http://www.w3.org/2000/svg">
<circle cx="16.5" cy="16.5" r="16.5" fill="#EFF3FB"/>
<path d="M22.6644 14.8569L14.1211 25.8812C14.0615 25.9567 13.9704 26.0005 13.8742 25.9999C13.8241 26.0012 13.7746 25.9893 13.7305 25.9656C13.5962 25.8965 13.5305 25.7413 13.5743 25.5968L15.8772 17.9848H11.3086C11.191 17.9844 11.0835 17.918 11.0305 17.8129C10.9822 17.7118 10.9918 17.5926 11.0556 17.5004L19.3425 6.12941C19.4269 6.01279 19.5799 5.96884 19.7133 6.02297C19.8467 6.07695 19.9258 6.2152 19.905 6.35763L18.8082 14.3539H22.4173C22.5368 14.3536 22.6459 14.4215 22.6985 14.5289C22.7504 14.6359 22.7372 14.763 22.6642 14.857L22.6644 14.8569Z" fill="#2C5BDE"/>
</svg>
