<svg width="20" height="20" viewBox="0 0 20 20" fill="none" xmlns="http://www.w3.org/2000/svg">
<g clip-path="url(#clip0_77_248)">
<path fill-rule="evenodd" clip-rule="evenodd" d="M12.7668 18.648C13.2236 18.1345 13.6103 17.5628 13.9167 16.9477C14.8139 15.1914 15.3337 12.9048 15.3926 10.4688H19.1054C19.0073 12.3153 18.3477 14.0878 17.2151 15.5493C16.0823 17.0109 14.5305 18.092 12.7668 18.6479L12.7668 18.648ZM1.0038 10.4687H4.7166C4.77545 12.9057 5.29502 15.1913 6.19256 16.9475C6.49895 17.5626 6.88557 18.1343 7.34248 18.6478C5.57878 18.0919 4.02701 17.0108 2.8942 15.5492C1.76153 14.0877 1.10201 12.3151 1.00383 10.4687L1.0038 10.4687ZM7.34259 1.35174C6.88572 1.86519 6.49908 2.43709 6.19267 3.05243C5.29528 4.80858 4.7757 7.09393 4.71671 9.53131H1.00391C1.10195 7.68469 1.7615 5.91202 2.89427 4.45043C4.02694 2.98873 5.57885 1.90766 7.34255 1.3517L7.34259 1.35174ZM10.5228 9.53142V0.99166C12.6271 1.47334 14.3407 5.14808 14.4552 9.53142H10.5228ZM10.5228 19.0084C12.6271 18.5264 14.3407 14.852 14.4552 10.4687H10.5228V19.0084ZM9.58683 10.4687H5.65441C5.76884 14.852 7.48235 18.5265 9.58683 19.0084V10.4687ZM9.58683 0.99166C7.48253 1.47334 5.76896 5.14808 5.65441 9.53142H9.58683V0.99166ZM19.1058 9.53142C19.0077 7.6848 18.3482 5.91213 17.2154 4.45054C16.0827 2.98884 14.5308 1.90777 12.7671 1.35181C13.224 1.86526 13.6106 2.43716 13.9171 3.05251C14.8143 4.80865 15.334 7.09401 15.393 9.53139L19.1058 9.53142ZM10.0549 7.29766e-05C7.40282 7.29766e-05 4.8591 1.05364 2.98391 2.92905C1.1085 4.80431 0.0549316 7.34778 0.0549316 10C0.0549316 12.6523 1.1085 15.1958 2.98391 17.071C4.85917 18.9464 7.40264 20 10.0549 20C12.7072 20 15.2507 18.9464 17.1259 17.071C19.0013 15.1958 20.0549 12.6523 20.0549 10C20.052 7.3488 18.9976 4.80679 17.1229 2.93197C15.248 1.05726 12.706 0.00284561 10.0548 0L10.0549 7.29766e-05Z" fill="#2C5BDE"/>
</g>
<defs>
<clipPath id="clip0_77_248">
<rect width="20" height="20" fill="white"/>
</clipPath>
</defs>
</svg>
