<svg width="42" height="42" viewBox="0 0 42 42" fill="none" xmlns="http://www.w3.org/2000/svg">
<path fill-rule="evenodd" clip-rule="evenodd" d="M21 42C9.40202 42 0 32.598 0 21C0 9.40202 9.40202 0 21 0C32.598 0 42 9.40202 42 21C42 32.598 32.598 42 21 42ZM21.2921 19.8215C23.0116 19.8215 31.3721 15.1201 31.3721 15.1201L31.3856 14.2801C31.3856 13.3527 30.6329 12.6001 29.703 12.6001H12.8812C11.9522 12.6001 11.1995 13.3527 11.1995 14.2801V15.0285C11.1995 15.0285 19.6516 19.8215 21.2921 19.8215ZM11.213 17.6399C11.2121 17.6399 19.6516 22.1313 21.2921 22.1313C23.0906 22.1313 31.3721 17.6399 31.3721 17.6399L31.3856 27.7199C31.3856 28.6473 30.6329 29.3999 29.703 29.3999H12.8812C11.953 29.3999 11.1995 28.6473 11.1995 27.7199L11.213 17.6399Z" fill="white"/>
</svg>
