<svg width="20" height="21" viewBox="0 0 20 21" fill="none" xmlns="http://www.w3.org/2000/svg">
<g clip-path="url(#clip0_88_1048)">
<path d="M10 0.220947C4.48611 0.220947 0 4.70706 0 10.2209C0 15.7348 4.48611 20.2209 10 20.2209C15.5139 20.2209 20 15.7348 20 10.2209C20 4.70706 15.5139 0.220947 10 0.220947ZM10 19.1098C5.09881 19.1098 1.11111 15.1221 1.11111 10.2209C1.11111 5.31976 5.09881 1.33206 10 1.33206C14.9012 1.33206 18.8889 5.31976 18.8889 10.2209C18.8889 15.1221 14.9012 19.1098 10 19.1098Z" fill="#2C5BDE"/>
<path d="M13.3331 9.66541H10.5553H9.44417H6.6664C6.35947 9.66541 6.11084 9.91404 6.11084 10.221C6.11084 10.5279 6.35947 10.7765 6.6664 10.7765H10.5553H13.3331C13.64 10.7765 13.8886 10.5279 13.8886 10.221C13.8886 9.91404 13.64 9.66541 13.3331 9.66541Z" fill="#2C5BDE"/>
</g>
<defs>
<clipPath id="clip0_88_1048">
<rect width="20" height="20" fill="white" transform="translate(0 0.220947)"/>
</clipPath>
</defs>
</svg>
