<svg width="20" height="20" viewBox="0 0 20 20" fill="none" xmlns="http://www.w3.org/2000/svg">
<path d="M10.7281 5.17347C11.7439 5.34783 12.6724 5.82833 13.4125 6.56632C14.1484 7.3023 14.6309 8.23084 14.8053 9.24865C14.8722 9.65008 15.2169 9.93999 15.6244 9.93999C15.6771 9.93999 15.7238 9.93391 15.7562 9.92783C15.7582 9.92783 15.7602 9.92783 15.7623 9.9258C15.9833 9.88931 16.1759 9.76969 16.3036 9.58519C16.4313 9.40272 16.48 9.18376 16.4415 8.96681C16.2104 7.6084 15.5697 6.37167 14.5864 5.38837C13.599 4.40507 12.3602 3.76437 11.0039 3.5353H11.0018C10.5497 3.46028 10.1219 3.76643 10.0469 4.21652C9.97593 4.67067 10.2801 5.09846 10.7281 5.17346L10.7281 5.17347Z" fill="#2C5BDE"/>
<path d="M15.8392 12.1336C15.385 11.6612 14.8356 11.4119 14.2496 11.4119C13.6698 11.4119 13.1163 11.6572 12.652 12.1235L11.4984 13.2771C11.47 13.2629 11.4416 13.2487 11.4153 13.2345L11.3565 13.2061C11.2328 13.1433 11.0909 13.0723 10.9733 12.9993C9.78922 12.2471 8.7086 11.2618 7.66651 9.98452C7.22048 9.42294 6.90825 8.94647 6.67913 8.47204C6.96906 8.19833 7.23872 7.92461 7.49215 7.6651C7.54892 7.60833 7.60569 7.54954 7.66448 7.49074C7.72125 7.43195 7.78005 7.37315 7.83884 7.31435C8.32139 6.83181 8.57683 6.27226 8.57482 5.69643C8.57482 5.12265 8.31937 4.5651 7.83884 4.08663L6.71767 2.96546C6.65279 2.90058 6.58791 2.8357 6.52506 2.77082C6.46221 2.70595 6.39733 2.64107 6.33448 2.57822L6.24528 2.48698C6.02429 2.26194 5.79517 2.02879 5.56405 1.81588C5.11395 1.36781 4.56856 1.13062 3.99073 1.13062C3.41495 1.13062 2.86548 1.36783 2.39717 1.81588C2.39514 1.81791 2.39312 1.81791 2.39312 1.81993L0.988109 3.22294C0.414324 3.79673 0.0879302 4.49619 0.0169718 5.30109V5.30312C-0.0580425 6.25601 0.114289 7.26163 0.560319 8.46796C1.23546 10.2927 2.2492 11.9836 3.74748 13.788C5.57624 15.9675 7.7718 17.6866 10.2717 18.8971H10.2737C11.2367 19.3573 12.5302 19.8966 13.9899 19.9919H13.996H14.0061C14.0893 19.9959 14.1764 20 14.2677 20C15.2915 20 16.1552 19.629 16.8324 18.8971L16.8426 18.8869C16.8507 18.8788 16.8567 18.8727 16.8628 18.8646C17.0656 18.6213 17.2987 18.3963 17.5603 18.1449C17.7407 17.9726 17.9252 17.7962 18.1036 17.6056C18.5638 17.1251 18.8071 16.5655 18.8051 15.9877C18.8031 15.4078 18.5557 14.8543 18.0894 14.388L15.8392 12.1336ZM15.6161 17.784C15.2552 18.1692 14.8416 18.3415 14.278 18.3415C14.2253 18.3415 14.1665 18.3375 14.1057 18.3334C12.9379 18.2584 11.8329 17.7962 11.0016 17.4008C8.70657 16.2958 6.69519 14.7226 5.02281 12.7236C3.65428 11.0753 2.73178 9.53851 2.12152 7.89223C1.75658 6.91297 1.61873 6.15471 1.67549 5.43901C1.71198 5.02134 1.8681 4.68886 2.16612 4.39487L3.561 2.99998C3.70698 2.86009 3.85701 2.78507 3.99691 2.78507C4.1287 2.78507 4.26859 2.85806 4.41658 3.00201C4.41861 3.00404 4.42064 3.00607 4.42267 3.00809C4.66393 3.23517 4.89913 3.4744 5.14849 3.7258L5.1566 3.73391C5.27622 3.85758 5.41408 3.99951 5.55399 4.13534L6.67316 5.25451C6.99958 5.58093 6.99958 5.81002 6.67316 6.13645C6.55557 6.25404 6.43595 6.37366 6.31836 6.49531L6.23523 6.58046C5.92097 6.89877 5.62497 7.19885 5.30261 7.48472C5.29856 7.48877 5.29248 7.49283 5.28842 7.49891L5.26815 7.51919C4.92551 7.86183 4.83224 8.27137 4.99241 8.73364C4.99647 8.7458 5.00052 8.75594 5.00458 8.76608C5.00661 8.77216 5.00863 8.77824 5.01269 8.78432C5.31275 9.50811 5.73447 10.1954 6.38325 11.0165C6.38325 11.0186 6.38528 11.0186 6.38528 11.0206C7.53685 12.4378 8.7513 13.5448 10.0997 14.4004C10.2761 14.5119 10.4585 14.6051 10.6288 14.6903C10.7545 14.7531 10.8964 14.8261 11.014 14.8971C11.0222 14.9032 11.0303 14.9072 11.0384 14.9113L11.0445 14.9153C11.0566 14.9214 11.0688 14.9295 11.083 14.9356C11.2594 15.0248 11.4337 15.0674 11.6142 15.0674C11.9223 15.0674 12.2062 14.9397 12.4353 14.6984L13.8383 13.2954C13.9396 13.194 14.0978 13.0724 14.264 13.0724C14.4181 13.0724 14.5681 13.192 14.6655 13.2934C14.6675 13.2954 14.6675 13.2954 14.6695 13.2974L16.9342 15.5621C17.1572 15.7851 17.3092 16.0487 16.9159 16.4623L16.9139 16.4643C16.7902 16.5981 16.6584 16.7258 16.5185 16.8617C16.4881 16.8901 16.4577 16.9205 16.4273 16.9509C16.1435 17.2165 15.8718 17.48 15.6163 17.7842L15.6161 17.784Z" fill="#2C5BDE"/>
<path d="M19.9673 8.80445C19.5942 6.6087 18.5562 4.60552 16.9646 3.01396C15.367 1.42039 13.3639 0.38234 11.166 0.0113095C10.7138 -0.0637048 10.2861 0.24244 10.211 0.692533C10.136 1.14464 10.4421 1.57243 10.8902 1.64747C12.7494 1.96375 14.4423 2.84368 15.7883 4.18785C17.1345 5.53406 18.0124 7.22701 18.3287 9.08413C18.3956 9.48556 18.7403 9.77547 19.1478 9.77547H19.1539C19.2046 9.77547 19.2472 9.76939 19.2796 9.76331C19.2816 9.76331 19.2837 9.76331 19.2857 9.76128C19.5067 9.72479 19.6993 9.60517 19.827 9.42067C19.9568 9.24023 20.0054 9.02128 19.9669 8.80433L19.9673 8.80445Z" fill="#2C5BDE"/>
</svg>
