<svg width="20" height="21" viewBox="0 0 20 21" fill="none" xmlns="http://www.w3.org/2000/svg">
<g clip-path="url(#clip0_88_1036)">
<path d="M10 0.220947C4.48611 0.220947 0 4.70706 0 10.2209C0 15.7348 4.48611 20.2209 10 20.2209C15.5139 20.2209 20 15.7348 20 10.2209C20 4.70706 15.5139 0.220947 10 0.220947ZM10 19.1098C5.09881 19.1098 1.11111 15.1221 1.11111 10.2209C1.11111 5.31976 5.09881 1.33206 10 1.33206C14.9012 1.33206 18.8889 5.31976 18.8889 10.2209C18.8889 15.1221 14.9012 19.1098 10 19.1098Z" fill="#2C5BDE"/>
<path d="M13.3335 9.66543H10.5558V6.88765C10.5558 6.58073 10.3071 6.33209 10.0002 6.33209C9.6933 6.33209 9.44466 6.58073 9.44466 6.88765V9.66543H6.66688C6.35996 9.66543 6.11133 9.91406 6.11133 10.221C6.11133 10.5279 6.35996 10.7765 6.66688 10.7765H9.44466V13.5543C9.44466 13.8612 9.6933 14.1099 10.0002 14.1099C10.3071 14.1099 10.5558 13.8612 10.5558 13.5543V10.7765H13.3335C13.6405 10.7765 13.8891 10.5279 13.8891 10.221C13.8891 9.91406 13.6405 9.66543 13.3335 9.66543Z" fill="#2C5BDE"/>
</g>
<defs>
<clipPath id="clip0_88_1036">
<rect width="20" height="20" fill="white" transform="translate(0 0.220947)"/>
</clipPath>
</defs>
</svg>
