<svg width="20" height="20" viewBox="0 0 20 20" fill="none" xmlns="http://www.w3.org/2000/svg">
<path d="M19.6714 18.0942L15.895 14.3287H15.8948C17.1133 12.7764 17.7745 10.8594 17.772 8.88622C17.772 6.52947 16.8359 4.26926 15.1694 2.60257C13.5029 0.936263 11.2427 0 8.88622 0C6.52947 0 4.26926 0.936263 2.60257 2.60257C0.936263 4.26907 0 6.52928 0 8.88622C0 11.2428 0.936263 13.503 2.60257 15.1694C4.26907 16.8359 6.52928 17.772 8.88622 17.772C10.8595 17.7746 12.7765 17.1133 14.3287 15.8948L18.0942 19.6712V19.6714C18.3027 19.8817 18.5866 20 18.8828 20C19.1789 20 19.4628 19.8817 19.6714 19.6714C19.8817 19.4628 20 19.1788 20 18.8828C20 18.5866 19.8817 18.3026 19.6714 18.0942L19.6714 18.0942ZM2.22145 8.88631C2.22145 7.11866 2.9236 5.42355 4.17338 4.17377C5.42316 2.92399 7.11827 2.22184 8.88593 2.22184C10.6534 2.22184 12.3485 2.92399 13.5983 4.17377C14.8482 5.42355 15.5504 7.11866 15.5504 8.88631C15.5504 10.6538 14.8482 12.3489 13.5983 13.5987C12.3485 14.8486 10.6534 15.5508 8.88593 15.5508C7.11827 15.5508 5.42316 14.8486 4.17338 13.5987C2.9236 12.3489 2.22145 10.6538 2.22145 8.88631Z" fill="#6C6C6C"/>
</svg>
