<svg width="42" height="42" viewBox="0 0 42 42" fill="none" xmlns="http://www.w3.org/2000/svg">
<path fill-rule="evenodd" clip-rule="evenodd" d="M42 21C42 32.5972 32.5972 42 21 42C9.40275 42 0 32.5972 0 21C0 9.40275 9.40275 0 21 0C32.5972 0 42 9.40275 42 21ZM21.7525 15.5033C19.7103 16.352 15.6275 18.1108 9.506 20.7778C8.512 21.1733 7.9905 21.56 7.94325 21.938C7.86275 22.5785 8.66425 22.8305 9.75275 23.1718C9.9015 23.219 10.0555 23.2663 10.213 23.3188C11.2857 23.667 12.7278 24.0747 13.4768 24.0905C14.1575 24.1045 14.917 23.8245 15.7553 23.2505C21.4743 19.3883 24.4265 17.437 24.612 17.395C24.7432 17.3652 24.9252 17.3267 25.0477 17.437C25.1702 17.5455 25.158 17.752 25.1458 17.808C25.0653 18.1458 21.9258 21.0665 20.2983 22.5785C19.7908 23.0493 19.432 23.3835 19.3585 23.4605C19.194 23.6303 19.026 23.793 18.865 23.9488C17.8675 24.9078 17.122 25.6287 18.907 26.8048C19.7645 27.37 20.4505 27.8372 21.1348 28.3027C21.882 28.812 22.6275 29.3195 23.5935 29.953C23.8385 30.114 24.073 30.2803 24.3022 30.443C25.172 31.0642 25.9543 31.6207 26.9202 31.5332C27.4803 31.4807 28.0612 30.954 28.3552 29.3807C29.05 25.6602 30.4185 17.6033 30.7352 14.2818C30.7545 14.006 30.7428 13.7289 30.7002 13.4558C30.6748 13.2351 30.5674 13.0321 30.3993 12.887C30.149 12.6823 29.7605 12.6385 29.5855 12.642C28.7962 12.656 27.5853 13.0778 21.7525 15.5033Z" fill="white"/>
</svg>
