<svg width="42" height="42" viewBox="0 0 42 42" fill="none" xmlns="http://www.w3.org/2000/svg">
<path fill-rule="evenodd" clip-rule="evenodd" d="M21 0C9.40202 0 0 9.40202 0 21C0 32.598 9.40202 42 21 42C32.598 42 42 32.598 42 21C42 9.40202 32.598 0 21 0ZM22.7104 27.6291C22.5034 27.8474 22.0991 27.8915 22.0991 27.8915H20.7603C20.7603 27.8915 17.8066 28.0657 15.2046 25.4073C12.367 22.5069 9.8614 16.7523 9.8614 16.7523C9.8614 16.7523 9.71678 16.3748 9.87345 16.1931C10.0498 15.9876 10.5308 15.9747 10.5308 15.9747L13.731 15.9543C13.731 15.9543 14.0323 16.0027 14.2481 16.1586C14.4267 16.2877 14.5264 16.5275 14.5264 16.5275C14.5264 16.5275 15.0435 17.8116 15.7283 18.973C17.066 21.2411 17.6883 21.7369 18.1418 21.4938C18.8036 21.14 18.6053 18.288 18.6053 18.288C18.6053 18.288 18.6173 17.2534 18.2722 16.7921C18.0049 16.435 17.5009 16.3307 17.2785 16.3017C17.0977 16.278 17.3935 15.8672 17.777 15.6833C18.3533 15.4069 19.37 15.3908 20.5718 15.4026C21.5086 15.4123 21.7781 15.4693 22.144 15.5564C22.9933 15.7576 22.9668 16.4023 22.9095 17.7937C22.8924 18.2098 22.8726 18.6927 22.8726 19.2505C22.8726 19.3758 22.8688 19.5094 22.865 19.6469C22.8452 20.3597 22.8224 21.176 23.3009 21.4798C23.5464 21.6347 24.1456 21.5024 25.6455 19.0031C26.3565 17.818 26.889 16.4253 26.889 16.4253C26.889 16.4253 27.0062 16.1769 27.187 16.0705C27.3721 15.9618 27.6219 15.9952 27.6219 15.9952L30.9898 15.9747C30.9898 15.9747 32.0021 15.8554 32.1653 16.3049C32.3373 16.7749 31.7873 17.8739 30.4113 19.6742C29.106 21.3824 28.4708 22.0113 28.5291 22.5675C28.5717 22.9739 28.9846 23.3415 29.7769 24.063C31.431 25.5705 31.8744 26.3636 31.9809 26.5541C31.9898 26.5699 31.9963 26.5816 32.001 26.5892C32.7427 27.7969 31.1782 27.8915 31.1782 27.8915L28.1862 27.9324C28.1862 27.9324 27.5441 28.0571 26.6984 27.4871C26.2553 27.1888 25.8224 26.7016 25.41 26.2375C24.7802 25.5288 24.1985 24.8741 23.7019 25.0287C22.8682 25.289 22.8934 27.0516 22.8934 27.0516C22.8934 27.0516 22.9 27.4291 22.7104 27.6291Z" fill="white"/>
</svg>
